<svg class="diagram-root" style="background: white" xmlns="http://www.w3.org/2000/svg" xmlns:xlink="http://www.w3.org/1999/xlink"><style>.diagram-root { font-family: "Helvetica Neue", sans-serif; font-size: 12px; } .t { overflow: visible; } .t-bg { y: 40; fill: white; stroke: #323c46; stroke-width: 2; } .th { fill: white; stroke: #323c46; stroke-width: 2; } .tht { fill: #323c46; font-size: 14px; font-weight: bold; } .tf { fill: #323c46; overflow: visible; } .tf.pk { fill: #323c46; font-weight: bold; } .tf.fk { font-weight: bold; } .ty { fill: #323c46; font-weight: normal; text-anchor: end; } .r { fill: transparent; stroke: #4e4e4e; stroke-width: 1; } .l { stroke: 1; } .i { fill: #a0a0a0; stroke: #a0a0a0; } .i.ix { fill: #a0a0a0; stroke: #000; } .fa { fill: transparent; overflow: visible; } .fa .bg.hover { fill: #f3f3f3; } .c { cy: 12; r: 4; stroke: #424242; fill: #424242; } .hr { fill: transparent; stroke: #323c46; stroke-opacity: 0.035; stroke-width: 13; } .dc { stroke: #fa5a3c; fill: #fa5a3c; } .x { stroke: white; stroke-width: 1; } .hl .th { fill: #323c46; } .hl .tht { fill: white; } .fhl .bg { fill: #efefef; } .fhls .bg {  } .r.hl { stroke: black; } .dim { opacity: 0.25; }</style><g class="drawing-wrapper" transform="translate(-3.5, 6.579999999999998) scale(1,1)"><g class="rs"><path d="M 685.33 130.32999999999998 m -1, 0 a 1,1 0 1,0 2,0 a 1,1 0 1,0 -2,0 M 685.33 130.32999999999998 m -0.5, 0 a 0.5,0.5 0 1,0 1,0 a 0.5,0.5 0 1,0 -1,0  M685.33 130.32999999999998 L685.33 130.32999999999998 697.33 130.32999999999998 M 685.33 136.32999999999998 m -1, 0 a 1,1 0 1,0 2,0 a 1,1 0 1,0 -2,0 M 685.33 136.32999999999998 m -0.5, 0 a 0.5,0.5 0 1,0 1,0 a 0.5,0.5 0 1,0 -1,0  M685.33 136.32999999999998 L685.33 136.32999999999998 692.33 130.32999999999998 685.33 124.32999999999998 M 685.33 124.32999999999998 m -1, 0 a 1,1 0 1,0 2,0 a 1,1 0 1,0 -2,0 M 685.33 124.32999999999998 m -0.5, 0 a 0.5,0.5 0 1,0 1,0 a 0.5,0.5 0 1,0 -1,0  M697.33 130.32999999999998 C 803.346 130.32999999999998, 782.34 390.25, 732.34 390.25 M 720.34 390.25 m -1, 0 a 1,1 0 1,0 2,0 a 1,1 0 1,0 -2,0 M 720.34 390.25 m -0.5, 0 a 0.5,0.5 0 1,0 1,0 a 0.5,0.5 0 1,0 -1,0  M720.34 390.25 L720.34 390.25 732.34 390.25 M726.34 396.25 L726.34 396.25 726.34 384.25" id="h2794463771" class="r"></path><path d="M 685.33 180.32999999999998 m -1, 0 a 1,1 0 1,0 2,0 a 1,1 0 1,0 -2,0 M 685.33 180.32999999999998 m -0.5, 0 a 0.5,0.5 0 1,0 1,0 a 0.5,0.5 0 1,0 -1,0  M685.33 180.32999999999998 L685.33 180.32999999999998 697.33 180.32999999999998 M 685.33 186.32999999999998 m -1, 0 a 1,1 0 1,0 2,0 a 1,1 0 1,0 -2,0 M 685.33 186.32999999999998 m -0.5, 0 a 0.5,0.5 0 1,0 1,0 a 0.5,0.5 0 1,0 -1,0  M685.33 186.32999999999998 L685.33 186.32999999999998 692.33 180.32999999999998 685.33 174.32999999999998 M 685.33 174.32999999999998 m -1, 0 a 1,1 0 1,0 2,0 a 1,1 0 1,0 -2,0 M 685.33 174.32999999999998 m -0.5, 0 a 0.5,0.5 0 1,0 1,0 a 0.5,0.5 0 1,0 -1,0  M697.33 180.32999999999998 Q 718.94 180.32999999999998, 740.54 210.67 T 783.75 241 M 795.75 241 m -1, 0 a 1,1 0 1,0 2,0 a 1,1 0 1,0 -2,0 M 795.75 241 m -0.5, 0 a 0.5,0.5 0 1,0 1,0 a 0.5,0.5 0 1,0 -1,0  M795.75 241 L795.75 241 783.75 241 M789.75 247 L789.75 247 789.75 235" id="h1362570610" class="r"></path><path d="M 427.17 173.42000000000002 m -1, 0 a 1,1 0 1,0 2,0 a 1,1 0 1,0 -2,0 M 427.17 173.42000000000002 m -0.5, 0 a 0.5,0.5 0 1,0 1,0 a 0.5,0.5 0 1,0 -1,0  M427.17 173.42000000000002 L427.17 173.42000000000002 439.17 173.42000000000002 M 427.17 179.42000000000002 m -1, 0 a 1,1 0 1,0 2,0 a 1,1 0 1,0 -2,0 M 427.17 179.42000000000002 m -0.5, 0 a 0.5,0.5 0 1,0 1,0 a 0.5,0.5 0 1,0 -1,0  M427.17 179.42000000000002 L427.17 179.42000000000002 434.17 173.42000000000002 427.17 167.42000000000002 M 427.17 167.42000000000002 m -1, 0 a 1,1 0 1,0 2,0 a 1,1 0 1,0 -2,0 M 427.17 167.42000000000002 m -0.5, 0 a 0.5,0.5 0 1,0 1,0 a 0.5,0.5 0 1,0 -1,0  M439.17 173.42000000000002 Q 459.96 173.42000000000002, 480.75 139.38 T 522.33 105.33 M 534.33 105.33 m -1, 0 a 1,1 0 1,0 2,0 a 1,1 0 1,0 -2,0 M 534.33 105.33 m -0.5, 0 a 0.5,0.5 0 1,0 1,0 a 0.5,0.5 0 1,0 -1,0  M534.33 105.33 L534.33 105.33 522.33 105.33 M528.33 111.33 L528.33 111.33 528.33 99.33" id="h353541086" class="r"></path><path d="M 281.17 198.42000000000002 m -1, 0 a 1,1 0 1,0 2,0 a 1,1 0 1,0 -2,0 M 281.17 198.42000000000002 m -0.5, 0 a 0.5,0.5 0 1,0 1,0 a 0.5,0.5 0 1,0 -1,0  M281.17 198.42000000000002 L281.17 198.42000000000002 269.17 198.42000000000002 M 281.17 204.42000000000002 m -1, 0 a 1,1 0 1,0 2,0 a 1,1 0 1,0 -2,0 M 281.17 204.42000000000002 m -0.5, 0 a 0.5,0.5 0 1,0 1,0 a 0.5,0.5 0 1,0 -1,0  M281.17 204.42000000000002 L281.17 204.42000000000002 274.17 198.42000000000002 281.17 192.42000000000002 M 281.17 192.42000000000002 m -1, 0 a 1,1 0 1,0 2,0 a 1,1 0 1,0 -2,0 M 281.17 192.42000000000002 m -0.5, 0 a 0.5,0.5 0 1,0 1,0 a 0.5,0.5 0 1,0 -1,0  M269.17 198.42000000000002 Q 250.76 198.42000000000002, 232.34 139.42 T 195.5 80.42 M 183.5 80.42 m -1, 0 a 1,1 0 1,0 2,0 a 1,1 0 1,0 -2,0 M 183.5 80.42 m -0.5, 0 a 0.5,0.5 0 1,0 1,0 a 0.5,0.5 0 1,0 -1,0  M183.5 80.42 L183.5 80.42 195.5 80.42 M189.5 86.42 L189.5 86.42 189.5 74.42" id="h1320791703" class="r"></path><path d="M 238 446.25 m -1, 0 a 1,1 0 1,0 2,0 a 1,1 0 1,0 -2,0 M 238 446.25 m -0.5, 0 a 0.5,0.5 0 1,0 1,0 a 0.5,0.5 0 1,0 -1,0  M238 446.25 L238 446.25 226 446.25 M 238 452.25 m -1, 0 a 1,1 0 1,0 2,0 a 1,1 0 1,0 -2,0 M 238 452.25 m -0.5, 0 a 0.5,0.5 0 1,0 1,0 a 0.5,0.5 0 1,0 -1,0  M238 452.25 L238 452.25 231 446.25 238 440.25 M 238 440.25 m -1, 0 a 1,1 0 1,0 2,0 a 1,1 0 1,0 -2,0 M 238 440.25 m -0.5, 0 a 0.5,0.5 0 1,0 1,0 a 0.5,0.5 0 1,0 -1,0  M226 446.25 Q 209.07 446.25, 192.13 357.88 T 158.25 269.5 M 146.25 269.5 m -1, 0 a 1,1 0 1,0 2,0 a 1,1 0 1,0 -2,0 M 146.25 269.5 m -0.5, 0 a 0.5,0.5 0 1,0 1,0 a 0.5,0.5 0 1,0 -1,0  M146.25 269.5 L146.25 269.5 158.25 269.5 M152.25 275.5 L152.25 275.5 152.25 263.5" id="h4023038455" class="r"></path><path d="M 372 471.25 m -1, 0 a 1,1 0 1,0 2,0 a 1,1 0 1,0 -2,0 M 372 471.25 m -0.5, 0 a 0.5,0.5 0 1,0 1,0 a 0.5,0.5 0 1,0 -1,0  M372 471.25 L372 471.25 384 471.25 M 372 477.25 m -1, 0 a 1,1 0 1,0 2,0 a 1,1 0 1,0 -2,0 M 372 477.25 m -0.5, 0 a 0.5,0.5 0 1,0 1,0 a 0.5,0.5 0 1,0 -1,0  M372 477.25 L372 477.25 379 471.25 372 465.25 M 372 465.25 m -1, 0 a 1,1 0 1,0 2,0 a 1,1 0 1,0 -2,0 M 372 465.25 m -0.5, 0 a 0.5,0.5 0 1,0 1,0 a 0.5,0.5 0 1,0 -1,0  M384 471.25 Q 429.09 471.25, 474.17 430.75 T 564.34 390.25 M 576.34 390.25 m -1, 0 a 1,1 0 1,0 2,0 a 1,1 0 1,0 -2,0 M 576.34 390.25 m -0.5, 0 a 0.5,0.5 0 1,0 1,0 a 0.5,0.5 0 1,0 -1,0  M576.34 390.25 L576.34 390.25 564.34 390.25 M570.34 396.25 L570.34 396.25 570.34 384.25" id="h149201868" class="r"></path></g><g class="hrs"></g><g class="ts"><svg width="144" height="175" x="576.34" y="333.25" id="h1537667952" class="t"><rect height="40" width="144" class="th"></rect><text x="13" y="25" class="tht">User</text><rect height="135" width="144" class="t-bg" y="40"></rect><text x="13" y="61" class="tf pk">UserID<tspan x="131" class="ty">int</tspan></text><path d="M7,14A2,2 0 0,1 5,12A2,2 0 0,1 7,10A2,2 0 0,1 9,12A2,2 0 0,1 7,14M12.65,10C11.83,7.67 9.61,6 7, 6A6, 6 0 0, 0 1, 12A6, 6 0 0, 0 7, 18C9.61, 18 11.83, 16.33 12.65, 14H17V18H21V14H23V10H12.65Z" class="i pk" transform="translate(98, 48) scale(0.65)"></path><text x="13" y="86" class="tf">Name<tspan x="131" class="ty">string</tspan></text><path d="M814.545 581.818v-23.273H535.273v-93.09h-46.546v93.09H209.455v139.637H256V605.09h232.727v93.09h46.546v-93.09H768v93.09h46.545V581.819zM674.91 465.455H349.091V139.636h325.818v325.819zM325.82 884.364H139.635V698.182h186.182v186.182z m279.272 0H418.909V698.182h186.182v186.182z m279.273 0H698.182V698.182h186.182v186.182zM395.636 418.909h232.728V186.182H395.636v232.727zM186.182 837.82h93.09v-93.092h-93.09v93.091z m279.273 0h93.09v-93.092h-93.09v93.091z m279.272 0h93.091v-93.092h-93.09v93.091z" class="i ix" transform="translate(85, 75) scale(0.014)"></path><text x="13" y="111" class="tf">Address1<tspan x="131" class="ty">string</tspan></text><text x="13" y="136" class="tf">Address2<tspan x="131" class="ty">string?</tspan></text><text x="13" y="161" class="tf">Address3<tspan x="131" class="ty">string?</tspan></text></svg><svg width="151" height="150" x="534.33" y="48.33" id="h4176899315" class="t"><rect height="40" width="151" class="th"></rect><text x="13" y="25" class="tht">Order</text><rect height="110" width="151" class="t-bg" y="40"></rect><text x="13" y="61" class="tf pk">OrderID<tspan x="138" class="ty">int</tspan></text><path d="M7,14A2,2 0 0,1 5,12A2,2 0 0,1 7,10A2,2 0 0,1 9,12A2,2 0 0,1 7,14M12.65,10C11.83,7.67 9.61,6 7, 6A6, 6 0 0, 0 1, 12A6, 6 0 0, 0 7, 18C9.61, 18 11.83, 16.33 12.65, 14H17V18H21V14H23V10H12.65Z" class="i pk" transform="translate(105, 48) scale(0.65)"></path><text x="13" y="86" class="tf fk">UserID<tspan x="138" class="ty">int</tspan></text><text x="13" y="111" class="tf">TotalAmount<tspan x="138" class="ty">money</tspan></text><text x="13" y="136" class="tf fk">OrderStatusID<tspan x="138" class="ty">int</tspan></text></svg><svg width="146" height="175" x="281.17" y="91.42" id="h1789807113" class="t"><rect height="40" width="146" class="th"></rect><text x="13" y="25" class="tht">OrderLine</text><rect height="135" width="146" class="t-bg" y="40"></rect><text x="13" y="61" class="tf pk">OrderLineID<tspan x="133" class="ty">int</tspan></text><path d="M7,14A2,2 0 0,1 5,12A2,2 0 0,1 7,10A2,2 0 0,1 9,12A2,2 0 0,1 7,14M12.65,10C11.83,7.67 9.61,6 7, 6A6, 6 0 0, 0 1, 12A6, 6 0 0, 0 7, 18C9.61, 18 11.83, 16.33 12.65, 14H17V18H21V14H23V10H12.65Z" class="i pk" transform="translate(100, 48) scale(0.65)"></path><text x="13" y="86" class="tf fk">OrderID<tspan x="133" class="ty">int</tspan></text><text x="13" y="111" class="tf fk">ActionID<tspan x="133" class="ty">int</tspan></text><text x="13" y="136" class="tf">Quantity<tspan x="133" class="ty">int</tspan></text><text x="13" y="161" class="tf">Date<tspan x="133" class="ty">date</tspan></text></svg><svg width="158" height="125" x="25.5" y="23.42" id="h4185620381" class="t"><rect height="40" width="158" class="th"></rect><text x="13" y="25" class="tht">Action</text><rect height="85" width="158" class="t-bg" y="40"></rect><text x="13" y="61" class="tf pk">ActionID<tspan x="145" class="ty">int</tspan></text><path d="M7,14A2,2 0 0,1 5,12A2,2 0 0,1 7,10A2,2 0 0,1 9,12A2,2 0 0,1 7,14M12.65,10C11.83,7.67 9.61,6 7, 6A6, 6 0 0, 0 1, 12A6, 6 0 0, 0 7, 18C9.61, 18 11.83, 16.33 12.65, 14H17V18H21V14H23V10H12.65Z" class="i pk" transform="translate(112, 48) scale(0.65)"></path><text x="13" y="86" class="tf">Name<tspan x="145" class="ty">varchar(20)</tspan></text><path d="M22,18V22H18V19H15V16H12L9.74,13.74C9.19,13.91 8.61,14 8,14A6,6 0 0,1 2,8A6,6 0 0,1 8,2A6,6 0 0,1 14,8C14,8.61 13.91, 9.19 13.74, 9.74L22, 18M7, 5A2, 2 0 0, 0 5, 7A2, 2 0 0, 0 7, 9A2, 2 0 0, 0 9, 7A2, 2 0 0, 0 7, 5Z" class="i uq" transform="translate(67, 75.5) scale(0.5)"></path><text x="13" y="111" class="tf">Symbol<tspan x="145" class="ty">varchar(10)</tspan></text></svg><svg width="157" height="100" x="795.75" y="184" id="h579050706" class="t"><rect height="40" width="157" class="th"></rect><text x="13" y="25" class="tht">OrderStatus</text><rect height="60" width="157" class="t-bg" y="40"></rect><text x="13" y="61" class="tf pk">OrderStatusID<tspan x="144" class="ty">int</tspan></text><path d="M7,14A2,2 0 0,1 5,12A2,2 0 0,1 7,10A2,2 0 0,1 9,12A2,2 0 0,1 7,14M12.65,10C11.83,7.67 9.61,6 7, 6A6, 6 0 0, 0 1, 12A6, 6 0 0, 0 7, 18C9.61, 18 11.83, 16.33 12.65, 14H17V18H21V14H23V10H12.65Z" class="i pk" transform="translate(111, 48) scale(0.65)"></path><text x="13" y="86" class="tf">Name<tspan x="144" class="ty">string</tspan></text><path d="M22,18V22H18V19H15V16H12L9.74,13.74C9.19,13.91 8.61,14 8,14A6,6 0 0,1 2,8A6,6 0 0,1 8,2A6,6 0 0,1 14,8C14,8.61 13.91, 9.19 13.74, 9.74L22, 18M7, 5A2, 2 0 0, 0 5, 7A2, 2 0 0, 0 7, 9A2, 2 0 0, 0 9, 7A2, 2 0 0, 0 7, 5Z" class="i uq" transform="translate(97, 75.5) scale(0.5)"></path></svg><svg width="110" height="75" x="36.25" y="212.5" id="h3066197047" class="t"><rect height="40" width="110" class="th"></rect><text x="13" y="25" class="tht">Cpt</text><rect height="35" width="110" class="t-bg" y="40"></rect><text x="13" y="61" class="tf pk">CptID<tspan x="97" class="ty">int</tspan></text><path d="M7,14A2,2 0 0,1 5,12A2,2 0 0,1 7,10A2,2 0 0,1 9,12A2,2 0 0,1 7,14M12.65,10C11.83,7.67 9.61,6 7, 6A6, 6 0 0, 0 1, 12A6, 6 0 0, 0 7, 18C9.61, 18 11.83, 16.33 12.65, 14H17V18H21V14H23V10H12.65Z" class="i pk" transform="translate(64, 48) scale(0.65)"></path></svg><svg width="134" height="125" x="238" y="364.25" id="h1679946109" class="t"><rect height="40" width="134" class="th"></rect><text x="13" y="25" class="tht">CptLine</text><rect height="85" width="134" class="t-bg" y="40"></rect><text x="13" y="61" class="tf pk">CptLineID<tspan x="121" class="ty">int</tspan></text><path d="M7,14A2,2 0 0,1 5,12A2,2 0 0,1 7,10A2,2 0 0,1 9,12A2,2 0 0,1 7,14M12.65,10C11.83,7.67 9.61,6 7, 6A6, 6 0 0, 0 1, 12A6, 6 0 0, 0 7, 18C9.61, 18 11.83, 16.33 12.65, 14H17V18H21V14H23V10H12.65Z" class="i pk" transform="translate(88, 48) scale(0.65)"></path><text x="13" y="86" class="tf fk">CptID<tspan x="121" class="ty">int</tspan></text><text x="13" y="111" class="tf fk">UserID<tspan x="121" class="ty">int</tspan></text></svg></g></g><text class="qdbd-link" x="10" y="20">www.quickdatabasediagrams.com</text></svg>