<svg class="diagram-root" style="background: #f5f6f6" xmlns="http://www.w3.org/2000/svg" xmlns:xlink="http://www.w3.org/1999/xlink"><style>.diagram-root { font-family: "Helvetica Neue", sans-serif; font-size: 12px; } .t { overflow: visible; } .t-bg { y: 40; fill: #fff;   } .th { fill: #005aa0;   } .tht { fill: #fff; font-size: 14px;  } .tf { fill: #323c46; overflow: visible; } .tf.pk { fill: #005aa0; font-weight: bold; } .tf.fk { font-weight: bold; } .ty { fill: #adb1b5; font-weight: normal; text-anchor: end; } .r { fill: transparent; stroke: #c3c3c3; stroke-width: 1; } .l { stroke: 1; } .i { fill: #c2c7ce; stroke: #c2c7ce; } .i.ix { fill: #afb3b6; stroke: #000; } .fa { fill: transparent; overflow: visible; } .fa .bg.hover { fill: #f7f7f7; } .c { cy: 12; r: 4; stroke: #d2d2dc; fill: #d2d2dc; } .hr { fill: transparent; stroke: #323c46; stroke-opacity: 0.035; stroke-width: 13; } .dc { stroke: #fa5a3c; fill: #fa5a3c; } .x { stroke: white; stroke-width: 1; } .hl .th { fill: #1b9bff; } .hl .tht {  } .fhl .bg { fill: #e7f4ff; } .fhls .bg {  } .r.hl { stroke: #1b9bff; } .dim { opacity: 0.25; }</style><g class="drawing-wrapper" transform="translate(14.222222222222214, 7.777777777777775) scale(1,1)"><g class="rs"><path d="M 483.9999999999999 364.4444444444447 m -1, 0 a 1,1 0 1,0 2,0 a 1,1 0 1,0 -2,0 M 483.9999999999999 364.4444444444447 m -0.5, 0 a 0.5,0.5 0 1,0 1,0 a 0.5,0.5 0 1,0 -1,0  M483.9999999999999 364.4444444444447 L483.9999999999999 364.4444444444447 471.9999999999999 364.4444444444447 M 483.9999999999999 370.4444444444447 m -1, 0 a 1,1 0 1,0 2,0 a 1,1 0 1,0 -2,0 M 483.9999999999999 370.4444444444447 m -0.5, 0 a 0.5,0.5 0 1,0 1,0 a 0.5,0.5 0 1,0 -1,0  M483.9999999999999 370.4444444444447 L483.9999999999999 370.4444444444447 476.9999999999999 364.4444444444447 483.9999999999999 358.4444444444447 M 483.9999999999999 358.4444444444447 m -1, 0 a 1,1 0 1,0 2,0 a 1,1 0 1,0 -2,0 M 483.9999999999999 358.4444444444447 m -0.5, 0 a 0.5,0.5 0 1,0 1,0 a 0.5,0.5 0 1,0 -1,0  M471.9999999999999 364.4444444444447 Q 402.15 364.4444444444447, 332.29 394.17 T 192.58 423.88888888888874 M 180.58 423.88888888888874 m -1, 0 a 1,1 0 1,0 2,0 a 1,1 0 1,0 -2,0 M 180.58 423.88888888888874 m -0.5, 0 a 0.5,0.5 0 1,0 1,0 a 0.5,0.5 0 1,0 -1,0  M180.58 423.88888888888874 L180.58 423.88888888888874 192.58 423.88888888888874 M186.58 429.88888888888874 L186.58 429.88888888888874 186.58 417.88888888888874" id="h1309620017" class="r"></path><path d="M 632.72 414.4444444444447 m -1, 0 a 1,1 0 1,0 2,0 a 1,1 0 1,0 -2,0 M 632.72 414.4444444444447 m -0.5, 0 a 0.5,0.5 0 1,0 1,0 a 0.5,0.5 0 1,0 -1,0  M632.72 414.4444444444447 L632.72 414.4444444444447 644.72 414.4444444444447 M 632.72 420.4444444444447 m -1, 0 a 1,1 0 1,0 2,0 a 1,1 0 1,0 -2,0 M 632.72 420.4444444444447 m -0.5, 0 a 0.5,0.5 0 1,0 1,0 a 0.5,0.5 0 1,0 -1,0  M632.72 420.4444444444447 L632.72 420.4444444444447 639.72 414.4444444444447 632.72 408.4444444444447 M 632.72 408.4444444444447 m -1, 0 a 1,1 0 1,0 2,0 a 1,1 0 1,0 -2,0 M 632.72 408.4444444444447 m -0.5, 0 a 0.5,0.5 0 1,0 1,0 a 0.5,0.5 0 1,0 -1,0  M644.72 414.4444444444447 Q 685.29 414.4444444444447, 725.86 350.72 T 807 287 M 819 287 m -1, 0 a 1,1 0 1,0 2,0 a 1,1 0 1,0 -2,0 M 819 287 m -0.5, 0 a 0.5,0.5 0 1,0 1,0 a 0.5,0.5 0 1,0 -1,0  M819 287 L819 287 807 287 M813 293 L813 293 813 281" id="h1362570610" class="r"></path><path d="M 398.26 191.77777777777789 m -1, 0 a 1,1 0 1,0 2,0 a 1,1 0 1,0 -2,0 M 398.26 191.77777777777789 m -0.5, 0 a 0.5,0.5 0 1,0 1,0 a 0.5,0.5 0 1,0 -1,0  M398.26 191.77777777777789 L398.26 191.77777777777789 410.26 191.77777777777789 M 398.26 197.77777777777789 m -1, 0 a 1,1 0 1,0 2,0 a 1,1 0 1,0 -2,0 M 398.26 197.77777777777789 m -0.5, 0 a 0.5,0.5 0 1,0 1,0 a 0.5,0.5 0 1,0 -1,0  M398.26 197.77777777777789 L398.26 197.77777777777789 405.26 191.77777777777789 398.26 185.77777777777789 M 398.26 185.77777777777789 m -1, 0 a 1,1 0 1,0 2,0 a 1,1 0 1,0 -2,0 M 398.26 185.77777777777789 m -0.5, 0 a 0.5,0.5 0 1,0 1,0 a 0.5,0.5 0 1,0 -1,0  M410.26 191.77777777777789 Q 425.7 191.77777777777789, 441.13 265.61 T 471.9999999999999 339.4444444444447 M 483.9999999999999 339.4444444444447 m -1, 0 a 1,1 0 1,0 2,0 a 1,1 0 1,0 -2,0 M 483.9999999999999 339.4444444444447 m -0.5, 0 a 0.5,0.5 0 1,0 1,0 a 0.5,0.5 0 1,0 -1,0  M483.9999999999999 339.4444444444447 L483.9999999999999 339.4444444444447 471.9999999999999 339.4444444444447 M477.9999999999999 345.4444444444447 L477.9999999999999 345.4444444444447 477.9999999999999 333.4444444444447" id="h353541086" class="r"></path><path d="M 254.2222222222228 216.77777777777789 m -1, 0 a 1,1 0 1,0 2,0 a 1,1 0 1,0 -2,0 M 254.2222222222228 216.77777777777789 m -0.5, 0 a 0.5,0.5 0 1,0 1,0 a 0.5,0.5 0 1,0 -1,0  M254.2222222222228 216.77777777777789 L254.2222222222228 216.77777777777789 242.2222222222228 216.77777777777789 M 254.2222222222228 222.77777777777789 m -1, 0 a 1,1 0 1,0 2,0 a 1,1 0 1,0 -2,0 M 254.2222222222228 222.77777777777789 m -0.5, 0 a 0.5,0.5 0 1,0 1,0 a 0.5,0.5 0 1,0 -1,0  M254.2222222222228 222.77777777777789 L254.2222222222228 222.77777777777789 247.2222222222228 216.77777777777789 254.2222222222228 210.77777777777789 M 254.2222222222228 210.77777777777789 m -1, 0 a 1,1 0 1,0 2,0 a 1,1 0 1,0 -2,0 M 254.2222222222228 210.77777777777789 m -0.5, 0 a 0.5,0.5 0 1,0 1,0 a 0.5,0.5 0 1,0 -1,0  M242.2222222222228 216.77777777777789 Q 227.12 216.77777777777789, 212.02 148 T 181.82 79.22222222222223 M 169.82 79.22222222222223 m -1, 0 a 1,1 0 1,0 2,0 a 1,1 0 1,0 -2,0 M 169.82 79.22222222222223 m -0.5, 0 a 0.5,0.5 0 1,0 1,0 a 0.5,0.5 0 1,0 -1,0  M169.82 79.22222222222223 L169.82 79.22222222222223 181.82 79.22222222222223 M175.82 85.22222222222223 L175.82 85.22222222222223 175.82 73.22222222222223" id="h1320791703" class="r"></path></g><g class="hrs"></g><g class="ts"><svg width="155.37" height="100" x="819" y="230" id="h579050706" class="t"><rect height="40" width="155.37" class="th"></rect><text x="13" y="25" class="tht">OrderStatus</text><rect height="60" width="155.37" class="t-bg"></rect><text x="13" y="61" class="tf pk">OrderStatusID<tspan x="142.37" class="ty">int</tspan></text><path d="M7,14A2,2 0 0,1 5,12A2,2 0 0,1 7,10A2,2 0 0,1 9,12A2,2 0 0,1 7,14M12.65,10C11.83,7.67 9.61,6 7, 6A6, 6 0 0, 0 1, 12A6, 6 0 0, 0 7, 18C9.61, 18 11.83, 16.33 12.65, 14H17V18H21V14H23V10H12.65Z" class="i pk" transform="translate(109.696171875, 48) scale(0.65)"></path><text x="13" y="86" class="tf">Name<tspan x="142.37" class="ty">string</tspan></text><path d="M22,18V22H18V19H15V16H12L9.74,13.74C9.19,13.91 8.61,14 8,14A6,6 0 0,1 2,8A6,6 0 0,1 8,2A6,6 0 0,1 14,8C14,8.61 13.91, 9.19 13.74, 9.74L22, 18M7, 5A2, 2 0 0, 0 5, 7A2, 2 0 0, 0 7, 9A2, 2 0 0, 0 9, 7A2, 2 0 0, 0 7, 5Z" class="i uq" transform="translate(97.02625, 75.5) scale(0.5)"></path></svg><svg width="162.04" height="125" x="7.777777777777786" y="22.222222222222225" id="h4185620381" class="t"><rect height="40" width="162.04" class="th"></rect><text x="13" y="25" class="tht">Action</text><rect height="85" width="162.04" class="t-bg"></rect><text x="13" y="61" class="tf pk">ActionID<tspan x="149.04" class="ty">int</tspan></text><path d="M7,14A2,2 0 0,1 5,12A2,2 0 0,1 7,10A2,2 0 0,1 9,12A2,2 0 0,1 7,14M12.65,10C11.83,7.67 9.61,6 7, 6A6, 6 0 0, 0 1, 12A6, 6 0 0, 0 7, 18C9.61, 18 11.83, 16.33 12.65, 14H17V18H21V14H23V10H12.65Z" class="i pk" transform="translate(116.36617187499999, 48) scale(0.65)"></path><text x="13" y="86" class="tf">Name<tspan x="149.04" class="ty">varchar(200)</tspan></text><path d="M22,18V22H18V19H15V16H12L9.74,13.74C9.19,13.91 8.61,14 8,14A6,6 0 0,1 2,8A6,6 0 0,1 8,2A6,6 0 0,1 14,8C14,8.61 13.91, 9.19 13.74, 9.74L22, 18M7, 5A2, 2 0 0, 0 5, 7A2, 2 0 0, 0 7, 9A2, 2 0 0, 0 9, 7A2, 2 0 0, 0 7, 5Z" class="i uq" transform="translate(65.01265624999999, 75.5) scale(0.5)"></path><text x="13" y="111" class="tf">Price<tspan x="149.04" class="ty">money</tspan></text></svg><svg width="144.04" height="150" x="254.2222222222228" y="109.77777777777789" id="h1789807113" class="t"><rect height="40" width="144.04" class="th"></rect><text x="13" y="25" class="tht">OrderLine</text><rect height="110" width="144.04" class="t-bg"></rect><text x="13" y="61" class="tf pk">OrderLineID<tspan x="131.04" class="ty">int</tspan></text><path d="M7,14A2,2 0 0,1 5,12A2,2 0 0,1 7,10A2,2 0 0,1 9,12A2,2 0 0,1 7,14M12.65,10C11.83,7.67 9.61,6 7, 6A6, 6 0 0, 0 1, 12A6, 6 0 0, 0 7, 18C9.61, 18 11.83, 16.33 12.65, 14H17V18H21V14H23V10H12.65Z" class="i pk" transform="translate(98.36617187499999, 48) scale(0.65)"></path><text x="13" y="86" class="tf fk">OrderID<tspan x="131.04" class="ty">int</tspan></text><text x="13" y="111" class="tf fk">ActionID<tspan x="131.04" class="ty">int</tspan></text><text x="13" y="136" class="tf">Quantity<tspan x="131.04" class="ty">int</tspan></text></svg><svg width="148.72" height="150" x="483.9999999999999" y="282.4444444444447" id="h4176899315" class="t"><rect height="40" width="148.72" class="th"></rect><text x="13" y="25" class="tht">Order</text><rect height="110" width="148.72" class="t-bg"></rect><text x="13" y="61" class="tf pk">OrderID<tspan x="135.72" class="ty">int</tspan></text><path d="M7,14A2,2 0 0,1 5,12A2,2 0 0,1 7,10A2,2 0 0,1 9,12A2,2 0 0,1 7,14M12.65,10C11.83,7.67 9.61,6 7, 6A6, 6 0 0, 0 1, 12A6, 6 0 0, 0 7, 18C9.61, 18 11.83, 16.33 12.65, 14H17V18H21V14H23V10H12.65Z" class="i pk" transform="translate(103.046171875, 48) scale(0.65)"></path><text x="13" y="86" class="tf fk">CustomerID<tspan x="135.72" class="ty">int</tspan></text><text x="13" y="111" class="tf">TotalAmount<tspan x="135.72" class="ty">money</tspan></text><text x="13" y="136" class="tf fk">OrderStatusID<tspan x="135.72" class="ty">int</tspan></text></svg><svg width="142.69" height="175" x="37.888888888888914" y="366.88888888888874" id="h1304670300" class="t"><rect height="40" width="142.69" class="th"></rect><text x="13" y="25" class="tht">Customer</text><rect height="135" width="142.69" class="t-bg"></rect><text x="13" y="61" class="tf pk">CustomerID<tspan x="129.69" class="ty">int</tspan></text><path d="M7,14A2,2 0 0,1 5,12A2,2 0 0,1 7,10A2,2 0 0,1 9,12A2,2 0 0,1 7,14M12.65,10C11.83,7.67 9.61,6 7, 6A6, 6 0 0, 0 1, 12A6, 6 0 0, 0 7, 18C9.61, 18 11.83, 16.33 12.65, 14H17V18H21V14H23V10H12.65Z" class="i pk" transform="translate(97.016171875, 48) scale(0.65)"></path><text x="13" y="86" class="tf">Name<tspan x="129.69" class="ty">string</tspan></text><path d="M814.545 581.818v-23.273H535.273v-93.09h-46.546v93.09H209.455v139.637H256V605.09h232.727v93.09h46.546v-93.09H768v93.09h46.545V581.819zM674.91 465.455H349.091V139.636h325.818v325.819zM325.82 884.364H139.635V698.182h186.182v186.182z m279.272 0H418.909V698.182h186.182v186.182z m279.273 0H698.182V698.182h186.182v186.182zM395.636 418.909h232.728V186.182H395.636v232.727zM186.182 837.82h93.09v-93.092h-93.09v93.091z m279.273 0h93.09v-93.092h-93.09v93.091z m279.272 0h93.091v-93.092h-93.09v93.091z" class="i ix" transform="translate(85.34625, 75) scale(0.014)"></path><text x="13" y="111" class="tf">Address1<tspan x="129.69" class="ty">string</tspan></text><text x="13" y="136" class="tf">Address2<tspan x="129.69" class="ty">string?</tspan></text><text x="13" y="161" class="tf">Address3<tspan x="129.69" class="ty">string?</tspan></text></svg></g></g><text class="qdbd-link" x="10" y="20">www.quickdatabasediagrams.com</text></svg>